<svg xmlns="http://www.w3.org/2000/svg" width="278" height="346" viewBox="0 0 278 346">
  <g id="Group_100" data-name="Group 100" transform="translate(-49 -801)">
    <g id="Rectangle_294" data-name="Rectangle 294" transform="translate(51 811)" fill="#fff" stroke="#7187ac" stroke-width="2">
      <rect width="124" height="146" rx="25" stroke="none"/>
      <rect x="1" y="1" width="122" height="144" rx="24" fill="none"/>
    </g>
    <g id="Rectangle_295" data-name="Rectangle 295" transform="translate(71 801)" fill="#fce8c5" stroke="#7187ae" stroke-width="2">
      <rect width="82" height="38" rx="19" stroke="none"/>
      <rect x="1" y="1" width="80" height="36" rx="18" fill="none"/>
    </g>
    <text id="早晨" transform="translate(112 824)" fill="#7187ae" font-size="15" font-family="PingFangTC-Regular, PingFang TC"><tspan x="-15" y="0">早晨</tspan></text>
    <text id="入园晨检_自由探索_生理照顾_" data-name="入园晨检

自由探索

生理照顾


" transform="translate(79 853)" fill="#707070" font-size="13" font-family="PingFangTC-Regular, PingFang TC"><tspan x="8.5" y="14">入园晨检</tspan><tspan y="14" font-family="HelveticaNeue, Helvetica Neue"></tspan><tspan font-family="HelveticaNeue, Helvetica Neue"><tspan x="34.5" y="30"></tspan></tspan><tspan x="8.5" y="47">自由探索</tspan><tspan y="47" font-family="HelveticaNeue, Helvetica Neue"></tspan><tspan font-family="HelveticaNeue, Helvetica Neue"><tspan x="34.5" y="63"></tspan></tspan><tspan x="8.5" y="80">生理照顾</tspan><tspan y="80" font-family="HelveticaNeue, Helvetica Neue"></tspan></text>
    <g id="Rectangle_296" data-name="Rectangle 296" transform="translate(202 811)" fill="#fff" stroke="#7187ac" stroke-width="2">
      <rect width="124" height="146" rx="25" stroke="none"/>
      <rect x="1" y="1" width="122" height="144" rx="24" fill="none"/>
    </g>
    <g id="Rectangle_297" data-name="Rectangle 297" transform="translate(222 801)" fill="#fce8c5" stroke="#7187ae" stroke-width="2">
      <rect width="82" height="38" rx="19" stroke="none"/>
      <rect x="1" y="1" width="80" height="36" rx="18" fill="none"/>
    </g>
    <text id="上午" transform="translate(263 824)" fill="#7187ae" font-size="15" font-family="PingFangTC-Regular, PingFang TC"><tspan x="-15" y="0">上午</tspan></text>
    <text id="水果时间_音乐律动_3Q发展课程_" data-name="水果时间

音乐律动

3Q发展课程


" transform="translate(230 853)" fill="#707070" font-size="13" font-family="PingFangTC-Regular, PingFang TC"><tspan x="8.5" y="14">水果时间</tspan><tspan y="14" font-family="HelveticaNeue, Helvetica Neue"></tspan><tspan font-family="HelveticaNeue, Helvetica Neue"><tspan x="34.5" y="30"></tspan></tspan><tspan x="8.5" y="47">音乐律动</tspan><tspan y="47" font-family="HelveticaNeue, Helvetica Neue"></tspan><tspan font-family="HelveticaNeue, Helvetica Neue"><tspan x="34.5" y="63"></tspan><tspan x="6.446" y="80">3Q</tspan><tspan y="80" font-family="PingFangTC-Regular, PingFang TC">发展课</tspan></tspan></text>
    <g id="Rectangle_298" data-name="Rectangle 298" transform="translate(49 988)" fill="#fff" stroke="#7187ac" stroke-width="2">
      <rect width="124" height="146" rx="25" stroke="none"/>
      <rect x="1" y="1" width="122" height="144" rx="24" fill="none"/>
    </g>
    <g id="Rectangle_299" data-name="Rectangle 299" transform="translate(69 978)" fill="#fce8c5" stroke="#7187ae" stroke-width="2">
      <rect width="82" height="38" rx="19" stroke="none"/>
      <rect x="1" y="1" width="80" height="36" rx="18" fill="none"/>
    </g>
    <text id="中午" transform="translate(110 1001)" fill="#7187ae" font-size="15" font-family="PingFangTC-Regular, PingFang TC"><tspan x="-15" y="0">中午</tspan></text>
    <text id="生活照料_奶_辅食_午睡充电_" data-name="生活照料

奶+辅食

午睡充电

" transform="translate(77 1030)" fill="#707070" font-size="13" font-family="PingFangTC-Regular, PingFang TC"><tspan x="8.5" y="14">生活照料</tspan><tspan y="14" font-family="HelveticaNeue, Helvetica Neue"></tspan><tspan font-family="HelveticaNeue, Helvetica Neue"><tspan x="34.5" y="30"></tspan></tspan><tspan x="11.1" y="47">奶</tspan><tspan y="47" font-family="HelveticaNeue, Helvetica Neue">+</tspan><tspan y="47">辅食</tspan><tspan y="47" font-family="HelveticaNeue, Helvetica Neue"></tspan><tspan font-family="HelveticaNeue, Helvetica Neue"><tspan x="34.5" y="63"></tspan></tspan><tspan x="8.5" y="80">午睡充电</tspan><tspan y="80" font-family="HelveticaNeue, Helvetica Neue"></tspan></text>
    <g id="Rectangle_300" data-name="Rectangle 300" transform="translate(203 988)" fill="#fff" stroke="#7187ac" stroke-width="2">
      <rect width="124" height="146" rx="25" stroke="none"/>
      <rect x="1" y="1" width="122" height="144" rx="24" fill="none"/>
    </g>
    <g id="Rectangle_301" data-name="Rectangle 301" transform="translate(223 978)" fill="#fce8c5" stroke="#7187ae" stroke-width="2">
      <rect width="82" height="38" rx="19" stroke="none"/>
      <rect x="1" y="1" width="80" height="36" rx="18" fill="none"/>
    </g>
    <text id="下午" transform="translate(264 1001)" fill="#7187ae" font-size="15" font-family="PingFangTC-Regular, PingFang TC"><tspan x="-15" y="0">下午</tspan></text>
    <text id="点心时间_认知课程_绘本故事_户外活动_" data-name="点心时间
认知课程
绘本故事
户外活动

" transform="translate(231 1026)" fill="#707070" font-size="13" font-family="PingFangTC-Regular, PingFang TC"><tspan x="8.5" y="14">点心时间</tspan><tspan y="14" font-family="HelveticaNeue, Helvetica Neue"></tspan><tspan x="8.5" y="39">认知课程</tspan><tspan y="39" font-family="HelveticaNeue, Helvetica Neue"></tspan><tspan x="8.5" y="64">绘本故事</tspan><tspan y="64" font-family="HelveticaNeue, Helvetica Neue"></tspan><tspan x="8.5" y="89">户外活动</tspan><tspan y="89" font-family="HelveticaNeue, Helvetica Neue"></tspan><tspan font-family="HelveticaNeue, Helvetica Neue"><tspan x="34.5" y="114"></tspan></tspan></text>
  </g>
</svg>
