<?xml version="1.0" encoding="iso-8859-1"?>
<!-- Generator: Adobe Illustrator 18.0.0, SVG Export Plug-In . SVG Version: 6.00 Build 0)  -->
<!DOCTYPE svg PUBLIC "-//W3C//DTD SVG 1.1//EN" "http://www.w3.org/Graphics/SVG/1.1/DTD/svg11.dtd">
<svg version="1.1" id="&#x56FE;&#x5C42;_1" xmlns="http://www.w3.org/2000/svg" xmlns:xlink="http://www.w3.org/1999/xlink" x="0px"
	 y="0px" viewBox="0 0 10 10" style="enable-background:new 0 0 10 10;" xml:space="preserve">
<g>
	<path style="fill:#4A6687;" d="M4.934,6.258C3.741,5.266,2.885,4.353,2.939,3.742L0.527,1.486c0,0-1.164,2.311,2.441,5.559
		S8.45,9.128,8.762,8.934L6.415,6.782C6.415,6.782,6.127,7.249,4.934,6.258z"/>
	<path style="fill:#4A6687;" d="M9.52,7.597C9.028,7.037,8.003,6.084,8.003,6.084S7.508,5.549,6.659,6.546
		C6.639,6.57,6.637,6.605,6.656,6.63c0.052,0.069,0.201,0.235,0.629,0.623c0.661,0.6,1.686,1.552,1.686,1.552
		S10.013,8.158,9.52,7.597z"/>
	<path style="fill:#4A6687;" d="M3.443,3.032c0.21-0.217,0.396-0.383,0.204-0.685c-0.234-0.37-0.524-0.704-0.857-0.989
		C2.486,1.096,2.037,0.715,1.614,0.704C1.24,0.695,0.898,0.985,0.703,1.281c-0.005,0.008-0.01,0.016-0.015,0.024l2.468,2.195
		C3.156,3.499,3.091,3.395,3.443,3.032z"/>
</g>
</svg>
