<?xml version="1.0" encoding="iso-8859-1"?>
<!-- Generator: Adobe Illustrator 18.0.0, SVG Export Plug-In . SVG Version: 6.00 Build 0)  -->
<!DOCTYPE svg PUBLIC "-//W3C//DTD SVG 1.1//EN" "http://www.w3.org/Graphics/SVG/1.1/DTD/svg11.dtd">
<svg version="1.1" id="&#x56FE;&#x5C42;_1" xmlns="http://www.w3.org/2000/svg" xmlns:xlink="http://www.w3.org/1999/xlink" x="0px"
	 y="0px" viewBox="0 0 10 10" style="enable-background:new 0 0 10 10;" xml:space="preserve">
<g>
	<path style="fill:#4A6687;" d="M7.615,7.392H5.453H4.53H2.367H1.445H0.688v1.057c0,0.677,0.549,1.225,1.225,1.225h6.198
		c0.677,0,1.225-0.549,1.225-1.225V7.392H8.538H7.615z"/>
	<path style="fill:#4A6687;" d="M9.073,5.145C8.849,4.861,8.502,4.677,8.112,4.677H1.913c-0.4,0-0.754,0.193-0.978,0.489
		C0.781,5.372,0.688,5.626,0.688,5.903c0,0.212-0.064,0.543,0.013,0.735c0.301-0.067,0.444-0.472,0.656-0.663
		c0.288-0.259,0.766-0.27,1.065-0.025C2.57,6.07,2.67,6.237,2.791,6.384c0.175,0.212,0.4,0.324,0.677,0.324c0.003,0,0.007,0,0.01,0
		c0.003,0,0.006,0,0.009,0c0.233,0,0.46-0.095,0.623-0.261c0.176-0.178,0.214-0.423,0.44-0.564c0.21-0.131,0.473-0.146,0.706-0.069
		C5.528,5.905,5.655,6.08,5.803,6.31c0.22,0.341,0.672,0.484,1.048,0.338c0.511-0.198,0.583-0.877,1.225-0.877
		c0.238,0,0.474,0.096,0.632,0.275c0.201,0.229,0.289,0.483,0.594,0.602h0.035V5.903C9.337,5.616,9.238,5.354,9.073,5.145z"/>
	<rect x="2.638" y="2.323" style="fill:#4A6687;" width="0.945" height="1.717"/>
	<path style="fill:#4A6687;" d="M3.583,1.182c0-0.218-0.069-0.431-0.197-0.608l-0.123-0.17c-0.075-0.104-0.229-0.104-0.304,0
		l-0.123,0.17C2.706,0.75,2.638,0.963,2.638,1.182v0.528h0.945V1.182z"/>
	<path style="fill:#4A6687;" d="M5.537,1.182c0-0.218-0.069-0.431-0.197-0.608l-0.123-0.17c-0.075-0.104-0.229-0.104-0.304,0
		l-0.123,0.17C4.661,0.75,4.592,0.963,4.592,1.182v0.528h0.945V1.182z"/>
	<path style="fill:#4A6687;" d="M7.362,1.182c0-0.218-0.069-0.431-0.197-0.608l-0.123-0.17c-0.075-0.104-0.229-0.104-0.304,0
		l-0.123,0.17C6.486,0.75,6.417,0.963,6.417,1.182v0.528h0.945V1.182z"/>
	<rect x="4.592" y="2.323" style="fill:#4A6687;" width="0.945" height="1.717"/>
	<rect x="6.417" y="2.323" style="fill:#4A6687;" width="0.945" height="1.717"/>
</g>
</svg>
