<svg id="图层_1" data-name="图层 1" xmlns="http://www.w3.org/2000/svg" viewBox="0 0 9.91 9.91"><defs><style>.cls-1{fill:#4a6687;}</style></defs><title>學校icon</title><path class="cls-1" d="M0,10H1.81V8.48H1.22V7.9h.59V7.32H1.22V6.74h.59V5.29H0Z" transform="translate(-0.04 -0.04)"/><path class="cls-1" d="M10,5.29H8.19V6.74h.59v.58H8.19V7.9h.59v.58H8.19V10H10Z" transform="translate(-0.04 -0.04)"/><path class="cls-1" d="M4.13,7.61h.58V10H4.13Z" transform="translate(-0.04 -0.04)"/><path class="cls-1" d="M5.29,7.61h.58V10H5.29Z" transform="translate(-0.04 -0.04)"/><path class="cls-1" d="M5.07,5.94,5,5.91l-.07,0A1.43,1.43,0,0,0,4.16,7H5.84A1.43,1.43,0,0,0,5.07,5.94Z" transform="translate(-0.04 -0.04)"/><path class="cls-1" d="M5,3.55a.29.29,0,1,0,.29.29A.29.29,0,0,0,5,3.55Z" transform="translate(-0.04 -0.04)"/><path class="cls-1" d="M5,1.23,1.65,4.1,2,4.54l.36-.3V10H3.55V7.24A2,2,0,0,1,4.67,5.42L5,5.26l.33.16A2,2,0,0,1,6.45,7.24V10H7.61V4.24l.36.3.38-.44ZM5,4.71a.87.87,0,1,1,.87-.87A.87.87,0,0,1,5,4.71Z" transform="translate(-0.04 -0.04)"/><path class="cls-1" d="M4.71,0V.72L5,.47,6.55,1.79H8L7.15.91,8,0Z" transform="translate(-0.04 -0.04)"/></svg>